#!OML:ASF E:\motion texture\Top Level 1\Subject 1\Session 1\male.ASF
:FULLY-SPECIFIED
:DEGREES
582
root -33.591 17.4661 3.79108 66.692 -85.2428 -61.4074
lowerback -1.06552 2.80311 2.00863
upperback 0.043589 3.71782 -0.803528
thorax 0.822049 1.86895 -1.87504
lowerneck -16.8711 -5.67348 -9.0427
upperneck 1.81554 -6.87655 13.5883
head 4.09155 -2.86255 5.10666
rclavicle 1.72446e-014 -1.66979e-014
rhumerus -36.8888 43.6199 -88.0992
rradius 83.9776
rwrist 13.6251
rhand -19.5744 -22.7691
rfingers 7.12502
rthumb 6.75065 -52.6415
lclavicle 1.72446e-014 -1.66979e-014
lhumerus -35.1251 1.94347 91.3975
lradius 45.5307
lwrist -17.2134
lhand -14.0411 20.3133
lfingers 7.12502
lthumb 12.0895 49.944
rfemur -17.6144 -7.33995 24.3896
rtibia 63.8237
rfoot 0.983487 -10.9884
rtoes 3.37027
lfemur -26.3529 -8.15406 -14.3298
ltibia 34.3408
lfoot -9.9506 -3.05921
ltoes -1.9133
583
root -33.7646 17.4979 3.79373 68.3897 -85.4691 -63.1961
lowerback -1.04499 2.5829 1.85224
upperback 0.00585209 3.42605 -0.730451
thorax 0.744153 1.72108 -1.72231
lowerneck -16.8865 -5.59027 -8.92423
upperneck 2.01918 -6.82892 13.792
head 4.15747 -2.82363 5.15635
rclavicle 2.94698e-014 1.74931e-014
rhumerus -36.3582 44.0183 -85.6353
rradius 86.1637
rwrist 13.6549
rhand -19.3562 -22.6938
rfingers 7.12502
rthumb 6.96131 -52.5593
lclavicle 2.94698e-014 1.74931e-014
lhumerus -35.3289 2.17635 90.9768
lradius 44.8993
lwrist -17.6194
lhand -13.895 20.2959
lfingers 7.12502
lthumb 12.2304 49.9183
rfemur -18.7114 -7.58387 24.0486
rtibia 64.1572
rfoot 1.00095 -11.3919
rtoes 3.6971
lfemur -25.1863 -8.24032 -14.6047
ltibia 33.7569
lfoot -10.3147 -2.75858
ltoes -2.01544
584
root -33.9369 17.5296 3.79577 70.2903 -85.69 -65.1818
lowerback -1.02422 2.36016 1.698
upperback -0.0317327 3.13082 -0.65223
thorax 0.6683 1.57169 -1.56479
lowerneck -16.9032 -5.50496 -8.79865
upperneck 2.22684 -6.78013 13.9818
head 4.22371 -2.78425 5.20077
rclavicle 1.28713e-014 1.59028e-015
rhumerus -35.6504 44.3368 -82.967
rradius 88.3337
rwrist 13.6032
rhand -19.1149 -22.6235
rfingers 7.12502
rthumb 7.1942 -52.4812
lclavicle 1.28713e-014 1.59028e-015
lhumerus -35.5344 2.35951 90.5695
lradius 44.2551
lwrist -18.013
lhand -13.7465 20.2718
lfingers 7.12502
lthumb 12.3735 49.8856
rfemur -19.7966 -7.81121 23.7239
rtibia 64.346
rfoot 0.94419 -11.8063
rtoes 4.0118
lfemur -24.0069 -8.32415 -14.8788
ltibia 33.1245
lfoot -10.6565 -2.45215
ltoes -2.14316
585
root -34.1081 17.5608 3.79724 72.4038 -85.9028 -67.3739
lowerback -1.00547 2.13543 1.5482
upperback -0.0679931 2.83275 -0.569245
thorax 0.597194 1.42114 -1.40403
lowerneck -16.9191 -5.41746 -8.66736
upperneck 2.4335 -6.7296 14.1599
head 4.28849 -2.74428 5.24091
rclavicle 2.87244e-014 1.59028e-015
rhumerus -34.7513 44.5617 -80.0909
rradius 90.4709
rwrist 13.4638
rhand -18.8522 -22.5578
rfingers 7.12502
rthumb 7.44781 -52.4067
lclavicle 2.87244e-014 1.59028e-015
lhumerus -35.7411 2.49043 90.1781
lradius 43.6058
lwrist -18.3834
lhand -13.592 20.2445
lfingers 7.12502
lthumb 12.5225 49.8492
rfemur -20.8644 -8.02327 23.4165
rtibia 64.3839
rfoot 0.818177 -12.2249
rtoes 4.3046
lfemur -22.8188 -8.40549 -15.1514
ltibia 32.4498
lfoot -10.9781 -2.14615
ltoes -2.2924
586
root -34.278 17.5914 3.79801 74.7471 -86.1076 -69.7888
lowerback -0.987874 1.90988 1.40116
upperback -0.102028 2.53348 -0.482092
thorax 0.531312 1.27024 -1.23975
lowerneck -16.9375 -5.32903 -8.53096
upperneck 2.63899 -6.67866 14.3265
head 4.35249 -2.70425 5.27673
rclavicle 3.70236e-014 1.31198e-014
rhumerus -33.6558 44.6757 -77.0093
rradius 92.5625
rwrist 13.2302
rhand -18.5602 -22.4992
rfingers 7.12502
rthumb 7.72969 -52.3379
lclavicle 3.70236e-014 1.31198e-014
lhumerus -35.9466 2.56877 89.8047
lradius 42.9545
lwrist -18.7306
lhand -13.4317 20.2105
lfingers 7.12502
lthumb 12.677 49.8057
rfemur -21.9109 -8.21725 23.1255
rtibia 64.2677
rfoot 0.626555 -12.6433
rtoes 4.58117
lfemur -21.6274 -8.48157 -15.4228
ltibia 31.74
lfoot -11.2764 -1.84794
ltoes -2.4352
